<?xml version="1.0"?>
<svg xmlns="http://www.w3.org/2000/svg" viewBox="0 0 512 512" width="512px" height="512px"><g><g id="Outline"><path d="M488,168a56.288,56.288,0,0,0-48.606,28.22A75.766,75.766,0,0,0,387.613,176H188l-43.2-57.6a32.069,32.069,0,0,0,6.941-5.788A32.566,32.566,0,0,0,160,90.649V88a8,8,0,0,0-8-8H132a34.189,34.189,0,0,1,28.984-16h1.892a34.412,34.412,0,0,1,27.4,13.7L201.6,92.8A8,8,0,0,0,216,88,72,72,0,0,0,72.086,84.6L18.343,138.343A8,8,0,0,0,16,144v72a8,8,0,0,0,8,8,40.045,40.045,0,0,0,40-40H90.827L160.09,337.917l7.921,150.5A8,8,0,0,0,176,496h80a8,8,0,0,0,7.589-5.47l32-96a8,8,0,0,0-.236-5.681L276.132,344H290a93.094,93.094,0,0,0,37.01,48.953l15.327,10.218-29.853,82.1A8,8,0,0,0,320,496h40a8,8,0,0,0,7.589-5.47l28.2-84.6,10.7,5.942L384.337,485.7A8,8,0,0,0,392,496h40a8,8,0,0,0,7.761-6.06l24-96a8,8,0,0,0-1.3-6.658L426.53,338.073A91.2,91.2,0,0,0,464,264.588v-12.2a76.287,76.287,0,0,0-.6-9.491A55.749,55.749,0,0,0,496,192V176A8,8,0,0,0,488,168ZM144,32a55.973,55.973,0,0,1,45.854,23.886A50.413,50.413,0,0,0,162.877,48h-1.892a50.166,50.166,0,0,0-46.821,32H88.57A56.086,56.086,0,0,1,144,32ZM32,206.629V184H48A24.042,24.042,0,0,1,32,206.629ZM224,374.975l7.585,17.7L224,423.016Zm55.449,17.38L250.234,480H226.246l21.515-86.06a8,8,0,0,0-.408-5.091L228.132,344h30.593ZM354.234,480H331.421l28.1-77.266a8,8,0,0,0-3.081-9.39l-20.556-13.7A77.151,77.151,0,0,1,306.969,344h16.2a123.1,123.1,0,0,0,48.223,48.368l10.171,5.651ZM480,192a39.835,39.835,0,0,1-27.979,38.16,8,8,0,0,0-5.416,9.332,60.723,60.723,0,0,1,1.395,12.9v12.2A75.087,75.087,0,0,1,411.062,329.1a8,8,0,0,0-2.412,11.617l38.681,52.975L425.754,480h-23l20.911-69.7a8,8,0,0,0-3.778-9.292L379.16,378.382a107.205,107.205,0,0,1-43.878-45.718l-15.854-39.635-14.856,5.942L316.184,328H224V280H208V480H183.59l-7.6-144.42a7.988,7.988,0,0,0-.694-2.863l-72-160A8,8,0,0,0,96,168H32V147.313L83.313,96H143.2a15.672,15.672,0,0,1-3.318,5.87,15.9,15.9,0,0,1-9.152,5.037,8,8,0,0,0-5.037,12.683L177.6,188.8A8,8,0,0,0,184,192H387.613a60,60,0,0,1,47.906,23.642,8,8,0,0,0,14.034-2.672A40.191,40.191,0,0,1,480,184.816Z" data-original="#000000" class="active-path" data-old_color="#000000" fill="#F8F9FC"/><rect x="72" y="120" width="16" height="16" data-original="#000000" class="active-path" data-old_color="#000000" fill="#F8F9FC"/></g></g> </svg>
