<?xml version="1.0"?>
<svg xmlns="http://www.w3.org/2000/svg" viewBox="0 0 512 512" width="512px" height="512px"><g><g id="Outline"><path d="M496,304V200a88.1,88.1,0,0,0-88-88H196L162.4,67.2A48.23,48.23,0,0,0,124,48H88A48.061,48.061,0,0,0,40.055,93.692L19.984,127.144a27.208,27.208,0,0,0-3.775,10.68A26.8,26.8,0,0,0,42.794,168H57.223l16.309,97.859A55.026,55.026,0,0,0,120.5,311.5a56.137,56.137,0,0,0,44.141,47.33L167.95,391.9l-7.888,63.108A8,8,0,0,0,168,464h32a8,8,0,0,0,7.761-6.06l16-64A7.977,7.977,0,0,0,224,392V360h16v31.192L227.111,454.4a8,8,0,0,0,7.839,9.6h32a8,8,0,0,0,7.6-5.5l21.05-64a8,8,0,0,0,.4-2.5V360h57.754l5.92,23.681L336.41,453.47A8,8,0,0,0,344,464h32a8,8,0,0,0,7.311-4.751l32-72A8.007,8.007,0,0,0,416,384v-8l7.393,9.856-15.2,68.409A8,8,0,0,0,416,464h32a8,8,0,0,0,7.59-5.47l24-72a8,8,0,0,0-.1-5.34l-10.9-29.064A56.016,56.016,0,0,0,496,304ZM42.794,152a10.8,10.8,0,0,1-10.706-12.209,11.355,11.355,0,0,1,1.616-4.415L52.53,104H112a8,8,0,0,1,0,16h-8a8,8,0,0,0-8,8,24.028,24.028,0,0,1-24,24ZM136,304a8,8,0,0,0-8-8,39.1,39.1,0,0,1-38.685-32.771L73.439,167.968A40.073,40.073,0,0,0,111.2,136h.8a24,24,0,0,0,0-48H57.013A32.057,32.057,0,0,1,88,64h36a32.151,32.151,0,0,1,25.6,12.8l36,48A8,8,0,0,0,192,128H408a72.081,72.081,0,0,1,72,72V304a40.045,40.045,0,0,1-40,40H408a40.045,40.045,0,0,1-40-40H352a55.823,55.823,0,0,0,16.861,40H247.139A55.823,55.823,0,0,0,264,304H248a40.045,40.045,0,0,1-40,40H176A40.045,40.045,0,0,1,136,304Zm72,87.016L193.754,448H177.062l6.876-55.008a7.928,7.928,0,0,0,.022-1.789L180.838,360H208Zm72-.3L261.16,448H244.746l11.093-54.4A8.031,8.031,0,0,0,256,392V360h24ZM370.8,448H355.1l20.49-61.47a8.01,8.01,0,0,0,.171-4.47L370.246,360H400v22.3Zm92.714-63.843L442.234,448H425.973l13.837-62.265a8,8,0,0,0-1.41-6.535L424,360h16a55.945,55.945,0,0,0,13.808-1.726Z" data-original="#000000" class="active-path" data-old_color="#000000" fill="#F8F9FC"/></g></g> </svg>
